<svg width="32" height="32" viewBox="0 0 32 32" fill="none" xmlns="http://www.w3.org/2000/svg">
<path d="M27.6364 16C27.6364 16.2652 27.5342 16.5196 27.3523 16.7071C27.1705 16.8946 26.9238 17 26.6667 17H5.33333C5.07615 17 4.8295 16.8946 4.64765 16.7071C4.4658 16.5196 4.36363 16.2652 4.36363 16C4.36363 15.7348 4.4658 15.4804 4.64765 15.2929C4.8295 15.1054 5.07615 15 5.33333 15H26.6667C26.9238 15 27.1705 15.1054 27.3523 15.2929C27.5342 15.4804 27.6364 15.7348 27.6364 16ZM5.33333 9H26.6667C26.9238 9 27.1705 8.89464 27.3523 8.70711C27.5342 8.51957 27.6364 8.26522 27.6364 8C27.6364 7.73478 27.5342 7.48043 27.3523 7.29289C27.1705 7.10536 26.9238 7 26.6667 7H5.33333C5.07615 7 4.8295 7.10536 4.64765 7.29289C4.4658 7.48043 4.36363 7.73478 4.36363 8C4.36363 8.26522 4.4658 8.51957 4.64765 8.70711C4.8295 8.89464 5.07615 9 5.33333 9ZM26.6667 23H5.33333C5.07615 23 4.8295 23.1054 4.64765 23.2929C4.4658 23.4804 4.36363 23.7348 4.36363 24C4.36363 24.2652 4.4658 24.5196 4.64765 24.7071C4.8295 24.8946 5.07615 25 5.33333 25H26.6667C26.9238 25 27.1705 24.8946 27.3523 24.7071C27.5342 24.5196 27.6364 24.2652 27.6364 24C27.6364 23.7348 27.5342 23.4804 27.3523 23.2929C27.1705 23.1054 26.9238 23 26.6667 23Z" fill="white"/>
</svg>
