<svg width="20" height="20" viewBox="0 0 20 20" fill="none" xmlns="http://www.w3.org/2000/svg">
<path d="M16.3969 5.45545C15.5578 4.61451 14.5606 3.948 13.4627 3.49439C12.3648 3.04077 11.1879 2.80901 10 2.81248H9.96797C4.98828 2.82966 0.9375 6.93435 0.9375 11.9633V13.75C0.9375 14.1644 1.10212 14.5618 1.39515 14.8548C1.68817 15.1479 2.0856 15.3125 2.5 15.3125H17.5C17.9144 15.3125 18.3118 15.1479 18.6049 14.8548C18.8979 14.5618 19.0625 14.1644 19.0625 13.75V11.875C19.0657 10.6817 18.8318 9.49967 18.3741 8.39761C17.9165 7.29556 17.2444 6.29545 16.3969 5.45545ZM17.1875 13.4375H9.94688L13.575 8.35935C13.6468 8.25922 13.6982 8.14592 13.7262 8.02593C13.7543 7.90593 13.7584 7.78159 13.7384 7.66001C13.7183 7.53842 13.6746 7.42197 13.6095 7.3173C13.5445 7.21263 13.4595 7.12179 13.3594 7.04998C13.2592 6.97816 13.1459 6.92677 13.026 6.89874C12.906 6.87071 12.7816 6.86659 12.66 6.88661C12.5384 6.90663 12.422 6.95041 12.3173 7.01543C12.2127 7.08046 12.1218 7.16547 12.05 7.2656L7.64219 13.4375H2.8125V11.9633C2.8125 11.8289 2.8125 11.6953 2.82344 11.5625H4.375C4.62364 11.5625 4.8621 11.4637 5.03791 11.2879C5.21373 11.1121 5.3125 10.8736 5.3125 10.625C5.3125 10.3763 5.21373 10.1379 5.03791 9.96206C4.8621 9.78625 4.62364 9.68748 4.375 9.68748H3.17344C4.02578 7.07888 6.29844 5.1156 9.0625 4.7492V6.24998C9.0625 6.49862 9.16127 6.73707 9.33709 6.91289C9.5129 7.08871 9.75136 7.18748 10 7.18748C10.2486 7.18748 10.4871 7.08871 10.6629 6.91289C10.8387 6.73707 10.9375 6.49862 10.9375 6.24998V4.74998C12.2897 4.92741 13.5635 5.48589 14.6101 6.36018C15.6568 7.23446 16.4331 8.38849 16.8484 9.68748H15.625C15.3764 9.68748 15.1379 9.78625 14.9621 9.96206C14.7863 10.1379 14.6875 10.3763 14.6875 10.625C14.6875 10.8736 14.7863 11.1121 14.9621 11.2879C15.1379 11.4637 15.3764 11.5625 15.625 11.5625H17.1797C17.1844 11.6664 17.1875 11.7703 17.1875 11.875V13.4375Z" fill="white"/>
<path d="M16.3969 5.45545C15.5578 4.61451 14.5606 3.948 13.4627 3.49439C12.3648 3.04077 11.1879 2.80901 10 2.81248H9.96797C4.98828 2.82966 0.9375 6.93435 0.9375 11.9633V13.75C0.9375 14.1644 1.10212 14.5618 1.39515 14.8548C1.68817 15.1479 2.0856 15.3125 2.5 15.3125H17.5C17.9144 15.3125 18.3118 15.1479 18.6049 14.8548C18.8979 14.5618 19.0625 14.1644 19.0625 13.75V11.875C19.0657 10.6817 18.8318 9.49967 18.3741 8.39761C17.9165 7.29556 17.2444 6.29545 16.3969 5.45545ZM17.1875 13.4375H9.94688L13.575 8.35935C13.6468 8.25922 13.6982 8.14592 13.7262 8.02593C13.7543 7.90593 13.7584 7.78159 13.7384 7.66001C13.7183 7.53842 13.6746 7.42197 13.6095 7.3173C13.5445 7.21263 13.4595 7.12179 13.3594 7.04998C13.2592 6.97816 13.1459 6.92677 13.026 6.89874C12.906 6.87071 12.7816 6.86659 12.66 6.88661C12.5384 6.90663 12.422 6.95041 12.3173 7.01543C12.2127 7.08046 12.1218 7.16547 12.05 7.2656L7.64219 13.4375H2.8125V11.9633C2.8125 11.8289 2.8125 11.6953 2.82344 11.5625H4.375C4.62364 11.5625 4.8621 11.4637 5.03791 11.2879C5.21373 11.1121 5.3125 10.8736 5.3125 10.625C5.3125 10.3763 5.21373 10.1379 5.03791 9.96206C4.8621 9.78625 4.62364 9.68748 4.375 9.68748H3.17344C4.02578 7.07888 6.29844 5.1156 9.0625 4.7492V6.24998C9.0625 6.49862 9.16127 6.73707 9.33709 6.91289C9.5129 7.08871 9.75136 7.18748 10 7.18748C10.2486 7.18748 10.4871 7.08871 10.6629 6.91289C10.8387 6.73707 10.9375 6.49862 10.9375 6.24998V4.74998C12.2897 4.92741 13.5635 5.48589 14.6101 6.36018C15.6568 7.23446 16.4331 8.38849 16.8484 9.68748H15.625C15.3764 9.68748 15.1379 9.78625 14.9621 9.96206C14.7863 10.1379 14.6875 10.3763 14.6875 10.625C14.6875 10.8736 14.7863 11.1121 14.9621 11.2879C15.1379 11.4637 15.3764 11.5625 15.625 11.5625H17.1797C17.1844 11.6664 17.1875 11.7703 17.1875 11.875V13.4375Z" fill="#8C44FF" fill-opacity="0.7"/>
</svg>
